<svg width="420" height="420" viewBox="0 0 420 420" fill="none" xmlns="http://www.w3.org/2000/svg">
<path d="M228 239H200C191.163 239 184 246.163 184 255V283C184 291.837 191.163 299 200 299H228C233.544 299 238.43 296.18 241.301 291.896C243.912 288 248.36 279.005 257 279H291C299.793 278.993 304.088 288 306.699 291.896C309.57 296.18 314.456 299 320 299H348C356.837 299 364 291.837 364 283V255C364 246.163 356.837 239 348 239H320C314.456 239 309.57 241.82 306.699 246.104C304.088 250 299.965 258.992 291 259H257C248.669 258.997 244.582 251 241.301 246.104C238.43 241.82 233.544 239 228 239Z" fill="#238BDD"/>
<path d="M360 196.933C360 188.686 366.686 182 374.933 182H401.067C409.314 182 416 188.686 416 196.933V223.067C416 231.314 409.314 238 401.067 238H374.933C366.686 238 360 231.314 360 223.067V196.933Z" fill="#1840A0"/>
<path d="M20 180H48C56.8366 180 64 172.837 64 164V136C64 127.163 71.1634 120 80 120H108C116.837 120 124 112.837 124 104V76C124 67.1634 131.163 60 140 60H168C176.837 60 184 52.8366 184 44V16C184 7.16344 191.163 -3.86258e-07 200 0L228 1.22392e-06C236.837 1.61018e-06 244 7.16345 244 16V44C244 52.8366 236.837 60 228 60H200C191.163 60 184 67.1634 184 76V104C184 112.837 176.837 120 168 120H140C131.163 120 124 127.163 124 136V164C124 172.837 131.163 180 140 180H168C176.837 180 184 187.163 184 196V224C184 232.837 176.837 240 168 240H140C131.163 240 124 247.163 124 256V284C124 292.837 131.163 300 140 300H168C176.837 300 184 307.163 184 316V344C184 352.837 191.163 360 200 360H228C236.837 360 244 352.837 244 344V316C244 307.163 251.163 300 260 300H288C296.837 300 304 307.163 304 316V344C304 352.837 296.837 360 288 360H260C251.163 360 244 367.163 244 376V404C244 412.837 236.837 420 228 420H200C191.163 420 184 412.837 184 404V376C184 367.163 176.837 360 168 360H140C131.163 360 124 352.837 124 344V316C124 307.163 116.837 300 108 300H80C71.1634 300 64 292.837 64 284V256C64 247.163 56.8366 240 48 240H20C11.1634 240 4 232.837 4 224V196C4 187.163 11.1634 180 20 180Z" fill="#1840A0"/>
<path d="M244 77V105C244 113.837 236.837 121 228 121H200C191.163 121 184 128.163 184 137V165C184 173.837 191.163 181 200 181H228C236.837 181 244 188.163 244 197V225C244 233.837 251.163 241 260 241H288C296.837 241 304 233.837 304 225V197C304 188.163 296.837 181 288 181H260C251.163 181 244 173.837 244 165V137C244 128.163 251.163 121 260 121H288C293.183 121 297.492 124.192 300.714 127.286C302.5 129 303.764 130.128 304.82 131.931C306.206 134.3 307 137.057 307 140C307 144.5 306 147 306 151C306 153.577 306.348 156.073 307 158.443C309.566 167.773 316.839 175.154 326.106 177.872C330.345 179.115 334 175.418 334 171V170.407C334 165.989 330.014 162.568 326.64 159.716C324.165 157.623 322.593 154.495 322.593 151C322.593 144.7 327.7 139.593 334 139.593C337.495 139.593 340.623 141.165 342.716 143.64C345.568 147.014 348.989 151 353.407 151H354C358.418 151 362.115 147.345 360.872 143.106C358.154 133.839 350.773 126.566 341.443 124C339.073 123.348 337.5 123 334 123C330.5 123 328.25 123.99 323 124C320.057 124 317.3 123.206 314.931 121.82C313.128 120.764 312 119.5 310.286 117.714C307.285 114.589 304 110.183 304 105V77C304 68.1634 296.837 61 288 61H260C251.163 61 244 68.1634 244 77Z" fill="#238BDD"/>
</svg>
